<?xml version="1.0" encoding="UTF-8" standalone="no"?>
<!-- Created with Inkscape (http://www.inkscape.org/) -->

<svg
   xmlns:dc="http://purl.org/dc/elements/1.1/"
   xmlns:cc="http://creativecommons.org/ns#"
   xmlns:rdf="http://www.w3.org/1999/02/22-rdf-syntax-ns#"
   xmlns:svg="http://www.w3.org/2000/svg"
   xmlns="http://www.w3.org/2000/svg"
   xmlns:sodipodi="http://sodipodi.sourceforge.net/DTD/sodipodi-0.dtd"
   xmlns:inkscape="http://www.inkscape.org/namespaces/inkscape"
   width="210mm"
   height="297mm"
   id="svg2"
   version="1.1"
   inkscape:version="0.48.3.1 r9886"
   sodipodi:docname="dessin.svg">
  <defs
     id="defs4" />
  <sodipodi:namedview
     id="base"
     pagecolor="#ffffff"
     bordercolor="#666666"
     borderopacity="1.0"
     inkscape:pageopacity="0.0"
     inkscape:pageshadow="2"
     inkscape:zoom="0.7"
     inkscape:cx="508.17218"
     inkscape:cy="-1964.4567"
     inkscape:document-units="px"
     inkscape:current-layer="layer1"
     showgrid="false"
     inkscape:window-width="1280"
     inkscape:window-height="754"
     inkscape:window-x="0"
     inkscape:window-y="24"
     inkscape:window-maximized="1" />
  <metadata
     id="metadata7">
    <rdf:RDF>
      <cc:Work
         rdf:about="">
        <dc:format>image/svg+xml</dc:format>
        <dc:type
           rdf:resource="http://purl.org/dc/dcmitype/StillImage" />
        <dc:title />
      </cc:Work>
    </rdf:RDF>
  </metadata>
  <g
     inkscape:label="Calque 1"
     inkscape:groupmode="layer"
     id="layer1">
    <path
       style="fill:#000000;fill-opacity:0.47087378;stroke:#000000;stroke-width:1px;stroke-linecap:butt;stroke-linejoin:miter;stroke-opacity:1"
       d="m 123.11351,340.38647 8.91062,-113.95395 14.57415,114.34391 c 0,0 7.23931,-79.25781 5.76504,-115.18074 -4.9895,-22.97332 -4.96144,-35.85466 -2.61203,-59.45903 0.10185,12.85911 0.81941,23.31802 1.97761,32.40885 2.34517,18.40748 6.49697,31.20584 11.00208,46.96352 -0.37416,-11.72461 -0.0911,-35.00288 -3.41955,-57.59598 -2.03324,-13.80124 2.30322,-21.10153 -0.38955,-26.38643 -6.70487,-13.15918 -11.19566,-4.22733 -18.65808,-13.5863 -5.5541,-6.96566 8.35113,-14.78302 2.84971,-29.74746 -3.31947,-9.0293 -15.89827,-10.90991 -19.83412,-0.71429 -4.36152,11.29827 8.06846,22.6401 2.38796,30.37509 -5.16861,7.03795 -9.64995,2.43456 -15.36022,9.04061 -6.7398,7.79709 -5.75602,21.68316 -7.1835,35.31687 -2.79829,26.72611 0.3724,54.84901 0.3724,54.84901 l 6.47428,-43.77122 5.49526,-37.15227 c 2.7245,21.76226 -2.84304,41.35862 -4.28571,61.42857 -1.95673,36.57491 11.93365,112.82124 11.93365,112.82124 z"
       id="path2998"
       inkscape:connector-curvature="0"
       sodipodi:nodetypes="cccccscssssssssccccc" />
    <path
       sodipodi:nodetypes="cccccscsssssssscsccc"
       inkscape:connector-curvature="0"
       id="path3788"
       d="m 224.82924,341.9017 37.19489,-115.46918 43.3635,113.83883 c 0,0 -12.45867,-78.75273 -23.02431,-114.67566 -6.53832,-21.63183 -4.82801,-37.1953 -2.61203,-59.45903 5.17881,-10.21797 11.12555,-38.59037 10.85452,-49.43889 -0.45358,-18.15521 -4.11758,-35.69236 -24.9091,-47.52164 12.42736,10.24258 16.03327,33.02648 16.54365,44.99578 0.37551,8.8063 -2.06576,18.30117 -5.79745,27.09038 -2.20284,5.18832 -4.07383,9.07271 -6.17911,6.67803 -5.88225,-6.69086 8.35113,-14.78302 2.84971,-29.74746 -3.31947,-9.0293 -15.89827,-10.90991 -19.83412,-0.71429 -4.36152,11.29827 7.88033,22.5054 2.38796,30.37509 -4.05666,5.81255 -6.17472,-1.02223 -9.04677,-7.50064 -4.17697,-9.42191 -4.5296,-15.17079 -5.66827,-31.72149 -1.67048,-24.28062 12.77792,-39.31028 12.83868,-39.0571 -8.6467,3.15377 -21.34546,25.69031 -20.89175,42.80077 0.72179,27.22073 5.63947,39.61029 10.79856,56.28684 0.0241,20.39307 1.21368,36.32548 -3.65436,57.51423 -9.0278,38.59522 -15.2142,115.72543 -15.2142,115.72543 z"
       style="fill:#000000;fill-opacity:0.47087378;stroke:#000000;stroke-width:1px;stroke-linecap:butt;stroke-linejoin:miter;stroke-opacity:1" />
    <path
       sodipodi:nodetypes="cscscccsscsccsssssssscccscc"
       inkscape:connector-curvature="0"
       id="path3820"
       d="m 251.67773,625.01882 c 2.85116,-23.46084 13.21174,-69.44976 7.57134,-74.13252 -6.53267,-5.42353 -15.71943,-7.8138 -23.72943,-11.54895 0.11265,-0.0125 13.63207,4.77944 23.40307,10.6273 2.66549,1.59527 2.05119,6.81646 2.48701,10.84056 2.71999,1.33088 9.21877,0.66141 9.21877,0.66141 0,0 -1.2814,20.2131 8.87048,49.4757 1.19897,-14.39833 8.46333,-53.56503 4.60632,-60.33742 -5.27875,-9.26875 -26.36474,-12.59632 -35.72765,-15.24326 -6.97541,-1.97197 -3.04545,-17.51834 -3.63356,-32.09263 0.10185,12.85911 1.62298,16.26444 2.78118,25.35527 0.26605,2.08822 0.55419,3.96062 0.86258,5.6623 l 9.00965,2.0264 c -0.46187,-6.39869 -1.19001,-13.55413 -2.37898,-21.62473 -2.03322,-13.80124 -1.7751,-17.60519 -4.05027,-23.08285 -3.5002,-8.42703 -10.29354,-3.17519 -15.71165,-9.74701 -5.6672,-6.87396 8.35113,-14.78303 2.84971,-29.74747 -3.31947,-9.0293 -15.89827,-10.90991 -19.83412,-0.71429 -4.36152,11.29827 6.28275,17.28296 0.60225,25.01795 -5.16861,7.03795 -9.47138,3.50599 -15.18165,10.11204 -6.7398,7.79709 -5.93459,25.96887 -7.36207,39.60258 -2.79829,26.72611 2.15811,54.84901 2.15811,54.84901 l 6.47428,-43.77122 5.49526,-37.15227 c 2.7245,21.76226 -6.04222,51.14287 7.35715,56.42857 7.35785,2.90248 3.18571,2.63601 23.17663,7.28967 1.27619,26.57534 10.72377,61.18971 10.68559,61.24586 z"
       style="fill:#000000;fill-opacity:0.47058824;stroke:#000000;stroke-width:1px;stroke-linecap:butt;stroke-linejoin:miter;stroke-opacity:1" />
    <path
       sodipodi:nodetypes="sccssccsccsscss"
       inkscape:connector-curvature="0"
       id="path3833"
       d="m 147.80265,776.55616 c -23.56553,16.43351 -54.738545,24.60993 -78.177214,35.56042 -8.352508,3.91637 -24.567251,12.7425 -24.567251,12.7425 15.464915,-2.56052 41.000489,-10.67392 59.934105,-15.32857 23.88989,-5.87311 41.45557,-8.63195 61.75589,-14.48873 12.46985,-3.59764 24.86363,-9.95994 32.32533,-11.29807 -4.76907,10.97086 -9.8025,45.60115 4.61839,75.64877 -0.28234,-31.60607 -5.3727,-63.50534 14.73937,-74.31345 6.41831,-3.44916 9.29248,36.24731 19.18224,50.89607 -3.21005,-32.60531 -5.72919,-61.79644 -4.24355,-62.6055 7.61721,-4.62023 16.51928,3.92329 29.37074,-5.51281 7.75438,-5.69358 6.07236,-18.30048 -4.81489,-19.25407 -12.06471,-1.05673 -19.51399,14.03134 -28.52105,10.71906 -17.57088,-10.50117 -26.26651,-0.76239 -41.78365,5.78559 -7.44119,3.14006 -26.29505,2.01819 -39.81846,11.44879 z"
       style="fill:#000000;fill-opacity:0.47058824;stroke:#000000;stroke-width:1px;stroke-linecap:butt;stroke-linejoin:miter;stroke-opacity:1" />
    <path
       style="fill:#000000;fill-opacity:0.47058824;stroke:#000000;stroke-width:1px;stroke-linecap:butt;stroke-linejoin:miter;stroke-opacity:1"
       d="m 429.44553,797.68812 c -25.65559,12.93003 -57.67243,16.60869 -82.42581,24.12895 -8.82301,2.69385 -26.12441,9.13435 -26.12441,9.13435 15.67167,-0.34426 42.09898,-4.75903 61.50099,-6.68502 24.4809,-2.43015 42.26026,-2.67319 63.18546,-5.5956 12.85371,-1.79516 26.02368,-6.33787 33.59969,-6.60564 -25.22719,-0.13097 -41.25829,33.15359 -16.24452,43.21537 -2.56069,-15.97975 -9.02104,-22.11073 29.40961,-39.15169 l -8.38035,4.01592 c -1.80389,5.80627 0.39986,15.06262 13.84688,18.77941 -19.32838,-20.728 17.58068,-28.90328 16.78845,-32.27081 8.19482,-3.49475 15.79705,6.22352 29.85546,-1.29719 8.48264,-4.53785 8.60321,-17.25589 -2.03921,-19.74193 -11.79341,-2.75491 -21.30465,11.12594 -29.75176,6.5713 -15.90636,-12.88403 -25.89372,-4.47507 -42.18187,-0.19094 -7.81093,2.05444 -26.3158,-1.72656 -41.03861,5.69352 z"
       id="path3835"
       inkscape:connector-curvature="0"
       sodipodi:nodetypes="sccssccccccsscss" />
    <path
       style="fill:#000000;fill-opacity:0.47058824;stroke:#000000;stroke-width:1px;stroke-linecap:butt;stroke-linejoin:miter;stroke-opacity:1"
       d="m 125.46028,1047.5017 c 12.07385,-6.8079 22.24596,-26.8507 24.8409,-38.1788 12.23119,16.4496 29.85349,24.8125 44.78024,37.2187 0,0 -35.3713,-50.96818 -45.01796,-56.45697 -7.01881,-3.99358 -15.45026,11.17457 -27.63958,28.97007 -5.05115,7.3743 -19.11107,1.0097 -31.862861,2.1775 6.254749,-8.9034 23.565931,-14.8533 44.616741,-47.38019 -29.17271,19.54626 -46.85297,35.33129 -67.071338,42.43719 -14.607472,5.134 -11.077516,1.8512 -13.66223,-5.6717 -2.333423,-6.7915 -8.597728,-12.34932 -20.192405,-12.16451 -10.015658,0.15964 -14.544296,14.04631 -1.609313,21.04431 12.91274,6.986 12.169808,0.7566 16.65705,15.1171 0.477775,1.5291 2.110692,4.3695 3.170774,5.3687 12.292461,11.5869 22.957516,6.2303 38.42113,5.0981 8.055024,-0.5899 27.866542,6.1996 34.568852,2.4205 z"
       id="path3848"
       inkscape:connector-curvature="0"
       sodipodi:nodetypes="sccssccssssssss" />
    <path
       sodipodi:nodetypes="sccssccssssss"
       inkscape:connector-curvature="0"
       id="path3854"
       d="m 345.46028,1047.5017 c 12.92227,-5.014 22.24596,-26.8507 24.8409,-38.1788 12.23119,16.4496 29.85349,24.8125 44.78024,37.2187 0,0 -35.3713,-50.96818 -45.01796,-56.45697 -7.01881,-3.99358 -15.45026,11.17457 -27.63958,28.97007 -5.05115,7.3743 -22.98037,5.1721 -31.18647,-4.7717 6.25475,-8.9035 30.88954,-19.90406 51.94035,-52.43099 -29.17271,19.54626 -46.85297,35.33125 -67.07134,42.43719 -14.60747,5.134 -11.07751,1.8512 -13.66223,-5.67169 -2.33342,-6.79149 -8.59773,-12.34933 -20.1924,-12.16452 -10.01566,0.15964 -14.5443,14.04631 -1.60932,21.04431 12.91274,6.986 10.06362,1.5936 16.65705,15.1171 10.31044,21.1475 51.40775,31.3877 68.16076,24.8873 z"
       style="fill:#000000;fill-opacity:0.47058824;stroke:#000000;stroke-width:1px;stroke-linecap:butt;stroke-linejoin:miter;stroke-opacity:1" />
    <path
       style="fill:#000000;fill-opacity:0.47058824;stroke:#000000;stroke-width:1px;stroke-linecap:butt;stroke-linejoin:miter;stroke-opacity:1"
       d="m 278.57143,1316.4693 24.10714,-11.7857 45.89286,3.0357 -27.67857,14.1071 z"
       id="path3871"
       inkscape:connector-curvature="0" />
    <path
       sodipodi:nodetypes="csssssccc"
       inkscape:connector-curvature="0"
       id="path3867"
       d="m 312.27322,1312.43 c -0.23032,0.1919 12.41493,-68.2169 12.52819,-107.8968 0.0611,-21.3939 17.71106,-51.2082 3.98678,-68.1799 -4.76766,-5.8958 -5.20195,-11.9909 -0.95748,-15.0275 5.13925,-3.6768 4.48171,-17.4957 2.2063,-23.6851 -3.31947,-9.0293 -20.17112,-8.132 -24.10697,2.0637 -4.36152,11.2982 6.42696,17.7156 0.74646,25.4506 -4.81007,7.549 -17.20722,16.6582 -12.48631,39.8288 7.01419,57.2662 5.41291,105.6209 18.08303,147.4462 z"
       style="fill:#000000;fill-opacity:0.47087378;stroke:#000000;stroke-width:1px;stroke-linecap:butt;stroke-linejoin:miter;stroke-opacity:1" />
    <path
       inkscape:connector-curvature="0"
       id="path3873"
       d="m 144.57143,1316.4693 24.10714,-11.7857 45.89286,3.0357 -27.67857,14.1071 z"
       style="fill:#000000;fill-opacity:0.47058824;stroke:#000000;stroke-width:1px;stroke-linecap:butt;stroke-linejoin:miter;stroke-opacity:1" />
    <path
       style="fill:#000000;fill-opacity:0.47087378;stroke:#000000;stroke-width:1px;stroke-linecap:butt;stroke-linejoin:miter;stroke-opacity:1"
       d="m 106.48751,1356.0014 c -0.0866,0.072 5.43009,-22.2374 13.24654,-33.4961 12.96078,-18.6685 15.38879,-15.6692 29.63879,-57.4364 0,0 17.50044,0.8353 29.82856,-8.8959 -5.24472,10.7226 -4.69657,48.7581 -0.36665,56.8168 -0.74087,-12.7345 17.0599,-55.6334 16.26556,-65.1673 -1.08828,-13.0619 -35.45652,-2.7494 -39.18529,-10.5921 -6.73191,-14.1591 7.30215,-30.4536 -1.12683,-40.8771 -4.76766,-5.8958 0.79805,-11.9909 5.04252,-15.0275 5.13925,-3.6768 4.48171,-17.4957 2.2063,-23.6851 -3.31947,-9.0293 -20.17112,-8.132 -24.10697,2.0637 -4.36152,11.2982 6.42696,17.7156 0.74646,25.4506 -4.32248,6.7837 -15.96254,9.3635 -19.42296,29.5193 -1.83995,10.7171 -4.95748,15.3129 -0.38593,68.8226 3.50562,-32.388 14.53709,-69.5991 14.53687,-69.5845 0,0 -5.69738,21.8695 -9.42313,40.6327 -1.97999,15.8636 -0.42294,32.2931 -2.146,39.308 -6.94706,28.2825 -22.82383,22.9686 -15.34784,62.1483 z"
       id="path3875"
       inkscape:connector-curvature="0"
       sodipodi:nodetypes="cscccsssssscscccsc" />
    <path
       style="fill:#000000;fill-opacity:0.47087378;stroke:#000000;stroke-width:1px;stroke-linecap:butt;stroke-linejoin:miter;stroke-opacity:1"
       d="m 128.48751,1570.0014 c 5.4435,-29.2 12.19409,-75.0323 16.24247,-98.8611 4.14031,30.9333 -0.65712,57.4372 5.89048,84.3495 9.4751,-42.094 13.14763,-73.1897 9.93742,-120.7594 -1.05561,-15.6424 10.87358,-33.668 -1.84112,-42.3057 -6.2719,-4.2608 -3.13052,-8.0623 1.11395,-11.0989 5.13925,-3.6768 4.48171,-17.4957 2.2063,-23.6851 -3.31947,-9.0293 -20.17112,-8.1319 -24.10697,2.0637 -4.36152,11.2982 6.42696,17.7156 0.74646,25.4506 -4.32248,6.7837 -15.96254,9.3635 -19.42296,29.5193 -1.83995,10.7171 -4.95748,15.3129 -0.38593,68.8226 3.50562,-32.388 14.53709,-69.5991 14.53687,-69.5845 0,0 -5.69738,21.8695 -9.42313,40.6327 -0.2489,40.0792 -0.6111,87.0494 4.50616,115.4563 z"
       id="path3892"
       inkscape:connector-curvature="0"
       sodipodi:nodetypes="cccssssscscccc" />
    <path
       sodipodi:nodetypes="cscssccsccsscccccsssscssccc"
       inkscape:connector-curvature="0"
       id="path3896"
       d="m 274.2018,1568.2157 c 5.37856,-28.8517 29.23106,-36.2407 25.19973,-59.4438 -0.7114,-4.0946 -20.16627,-5.4722 -20.11798,-5.7565 l 11.07729,1.5011 c 4.36532,0.5916 8.79912,3.1357 9.22607,4.3652 0.67243,1.9363 4.88673,0.4701 6.10341,0.2029 -6.46549,14.0703 -10.6199,26.0913 -4.65887,46.0697 11.78892,-43.3193 22.03703,-33.498 21.80671,-52.8267 -0.0862,-7.2325 -19.86847,-9.4445 -24.66014,-9.4132 2.05631,-3.8314 4.89198,-6.1282 7.53,-10.3071 -12.55821,-1.1276 -18.22994,-4.5033 -17.81415,-4.3352 8.31287,3.361 10.82559,3.3981 17.95115,4.2918 20.19412,2.5327 52.10573,6.696 67.63262,5.5482 -40.45116,-8.2212 -25.37667,-4.7259 -76.39722,-18.3519 6.49883,1.6217 15.05206,4.0499 14.37374,3.7777 l 2.33656,-3.2716 c 0,0 24.41235,5.2463 79.35241,6.9599 -34.10065,-8.8804 -61.39698,-12.4376 -75.17655,-17.7096 -7.46062,-2.8544 -6.66663,-3.0101 -2.42158,-6.0481 5.13871,-3.6776 4.48171,-17.4957 2.2063,-23.6851 -3.31947,-9.0293 -20.17113,-8.132 -24.10697,2.0636 -2.71674,7.0376 0.44456,11.35 1.84242,15.471 1.92112,6.4941 -7.92945,5.0486 -12.66178,10.3919 -3.62009,4.0874 -42.872,39.4073 -20.74307,59.3583 3.54282,3.1941 12.14823,5.5516 17.39401,5.7726 -1.89339,6.4817 -10.80962,12.6216 -5.27411,45.3747 z"
       style="fill:#000000;fill-opacity:0.47087378;stroke:#000000;stroke-width:1px;stroke-linecap:butt;stroke-linejoin:miter;stroke-opacity:1" />
    <path
       style="fill:#000000;fill-opacity:0.47058824;stroke:#000000;stroke-width:1px;stroke-linecap:butt;stroke-linejoin:miter;stroke-opacity:1"
       d="m 87.640799,1735.8906 c 62.737021,5.0615 74.439701,41.2433 115.305451,57.0721 -9.15667,-12.723 -27.75819,-32.0071 -40.33073,-46.9095 -15.86362,-18.8033 -42.55872,-23.6781 -56.81497,-39.2718 -8.757221,-9.5787 -16.386803,-32.5054 -20.896844,-38.5986 -9.936548,-11.3525 -7.022952,-5.9649 -7.37197,-18.6322 4.372683,-7.9427 5.64747,-15.3951 3.741616,-22.5179 -4.253947,-15.8983 -28.491343,-19.386 -26.904162,2.5012 0.861019,11.8734 8.145377,14.3345 3.404221,24.8034 -3.415044,7.5407 -4.832699,12.7345 -5.381349,16.9735 -0.663114,5.1234 -14.296529,43.7845 -7.531574,73.3 2.82269,-17.3504 15.394836,-58.9789 19.460299,-66.1593 -3.48794,7.3662 -4.960468,11.9176 -6.840283,17.5495 1.89167,7.1722 15.708334,31.9549 30.160295,39.8896 z"
       id="path3914"
       inkscape:connector-curvature="0"
       sodipodi:nodetypes="ccssccsssscccc" />
    <path
       style="fill:#000000;fill-opacity:0.47058824;stroke:#000000;stroke-width:1px;stroke-linecap:butt;stroke-linejoin:miter;stroke-opacity:1"
       d="M 3.9285714,1739.0765 -5,1754.4336 l 59.285714,-5 2.5,-16.0714 z"
       id="path3918"
       inkscape:connector-curvature="0" />
    <path
       sodipodi:nodetypes="ccssccsssscccc"
       inkscape:connector-curvature="0"
       id="path3922"
       d="m 363.74794,1766.6406 c 65.02173,-16.1286 29.49568,-22.5006 105.19831,26.3221 -9.15667,-12.723 -27.75819,-32.0071 -40.33073,-46.9095 -15.86362,-18.8033 -50.55872,2.3219 -64.81497,-13.2718 -8.75722,-9.5787 -16.3868,-32.5054 -20.89684,-38.5986 2.56345,-8.1382 2.69133,-7.822 6.62803,-12.6322 7.94411,-2.2284 9.64747,-15.3951 7.74161,-22.5179 -4.25394,-15.8983 -28.49134,-19.386 -26.90416,2.5012 0.86102,11.8734 2.07231,14.7724 -6.31007,21.9463 -4.5044,3.8549 -22.80077,6.0747 -27.88135,20.5449 -7.8951,22.4863 4.92062,31.5401 14.68272,40.5857 -4.89916,-19.9411 -13.26788,-34.0598 18.67459,-38.9807 -5.6308,1.3841 -7.37119,1.3461 -12.82244,3.4066 1.29043,23.2554 32.24889,58.6157 47.0353,57.6039 z"
       style="fill:#000000;fill-opacity:0.47058824;stroke:#000000;stroke-width:1px;stroke-linecap:butt;stroke-linejoin:miter;stroke-opacity:1" />
    <path
       inkscape:connector-curvature="0"
       id="path3924"
       d="M 269.92857,1739.0765 261,1754.4336 l 59.28571,-5 2.5,-16.0714 z"
       style="fill:#000000;fill-opacity:0.47058824;stroke:#000000;stroke-width:1px;stroke-linecap:butt;stroke-linejoin:miter;stroke-opacity:1"
       sodipodi:nodetypes="ccccc" />
    <path
       sodipodi:nodetypes="sccsccccsscss"
       inkscape:connector-curvature="0"
       id="path3948"
       d="m 209.44553,1877.6881 c -25.65559,12.9301 -57.67243,16.6087 -82.42581,24.129 -8.82301,2.6938 -26.12441,9.1343 -26.12441,9.1343 15.67167,-0.3442 42.09898,-4.759 61.50099,-6.685 24.4809,-2.4301 42.26026,-2.6732 63.18546,-5.5956 18.33508,-2.5612 40.36641,-6.1604 59.39169,-13.1486 4.45256,33.6616 -4.35747,40.0702 45.62009,28.6038 -47.34804,-1.229 -28.73122,-11.8356 -30.94126,-30.3768 6.55332,4.4602 10.74629,9.1277 24.8047,1.607 8.48264,-4.5379 8.60321,-17.2559 -2.03921,-19.742 -11.79341,-2.7549 -21.30465,11.126 -29.75176,6.5713 -15.90636,-12.884 -25.89372,-4.475 -42.18187,-0.1909 -7.81093,2.0544 -26.3158,-1.7266 -41.03861,5.6935 z"
       style="fill:#000000;fill-opacity:0.47058824;stroke:#000000;stroke-width:1px;stroke-linecap:butt;stroke-linejoin:miter;stroke-opacity:1" />
    <path
       style="fill:#000000;fill-opacity:0.47058824;stroke:#000000;stroke-width:1px;stroke-linecap:butt;stroke-linejoin:miter;stroke-opacity:1"
       d="m 137.78813,2168.8564 c 0.35676,-23.8172 25.70587,-54.8666 20.32452,-61.3794 -5.40824,-6.5453 -13.32032,-9.5184 -21.33032,-13.2535 1.76963,-12.3926 1.71511,-17.4884 1.52203,-28.0503 16.38568,32.7592 26.45831,-23.1865 25.97479,-24.8504 4.1e-4,0 -12.55155,23.1682 -15.9529,26.0419 -4.52648,-7.7979 -5.00782,-21.4685 -13.06966,-25.5063 -7.80539,-4.2948 8.35113,-14.783 2.84971,-29.7475 -3.31947,-9.0293 -15.89827,-10.9099 -19.83412,-0.7143 -4.36152,11.2983 6.28275,17.283 0.60225,25.018 -5.16861,7.0379 -9.47138,3.506 -15.18165,10.112 -6.7398,7.7971 -13.93459,19.9689 -15.36207,33.6026 -2.79829,26.7261 -0.195954,40.6459 -0.195954,40.6459 4.620711,-21.3435 3.17154,-46.8745 21.818524,-61.2255 -10.666845,21.7623 -5.04665,46.2204 8.36731,51.5041 1.7223,7.7881 3.1384,13.7891 6.82405,24.0784 -2.87968,19.3956 -6.88853,45.6103 -4.68437,65.9015 5.34953,-21.6309 15.18497,-47.5889 17.17563,-64.6658 1.56451,-13.4212 -1.84989,-20.5861 -2.74988,-21.913 l -16.7716,-3.3902 17.3753,3.4822 c 2.36305,0.4786 4.51799,1.1593 7.27019,0.8924 -7.13138,23.9884 -8.24436,41.2307 -4.97178,53.4172 z"
       id="path3961"
       inkscape:connector-curvature="0"
       sodipodi:nodetypes="cscccccssssscccccsccccc" />
    <path
       sodipodi:nodetypes="cccssssscsccccccc"
       inkscape:connector-curvature="0"
       id="path3982"
       d="m 128.48751,2550.0014 c 5.4435,-29.2 12.19409,-75.0323 16.24247,-98.8611 4.14031,30.9333 -0.65712,57.4372 5.89048,84.3495 9.4751,-42.094 13.14763,-73.1897 9.93742,-120.7594 -1.05561,-15.6424 10.87358,-33.668 -1.84112,-42.3057 -6.2719,-4.2608 -3.13052,-8.0623 1.11395,-11.0989 5.13925,-3.6768 4.48171,-17.4957 2.2063,-23.6851 -3.31947,-9.0293 -20.17112,-8.1319 -24.10697,2.0637 -4.36152,11.2982 6.42696,15.6953 0.74646,23.4303 -2.05326,1.678 -39.918081,27.5233 -40.888702,38.6107 -0.872109,9.962 27.183502,33.2155 40.020172,32.4571 -41.173535,-39.9891 -23.02023,-30.9633 -8.19156,-45.8459 l -6.10164,5.3602 c -0.12987,8.036 -0.31283,16.7835 -0.4843,25.538 2.11377,2.4935 13.31942,13.6469 14.83474,14.9612 -5.27127,0.3812 -11.70975,-3.1741 -15.02176,-5.1424 -0.67752,39.5589 -0.65165,83.7853 5.64406,120.9278 z"
       style="fill:#000000;fill-opacity:0.47087378;stroke:#000000;stroke-width:1px;stroke-linecap:butt;stroke-linejoin:miter;stroke-opacity:1" />
    <path
       style="fill:#000000;fill-opacity:0.47087378;stroke:#000000;stroke-width:1px;stroke-linecap:butt;stroke-linejoin:miter;stroke-opacity:1"
       d="m 254.02049,2531.0541 c 6.63767,-58.0944 57.73155,67.832 62.70949,-41.9138 79.94343,-17.4914 18.39468,30.6448 43.64493,59.727 3.64424,-50.9726 46.74889,-71.6208 -23.77642,-86.4142 -1.05561,-15.6424 6.7067,-45.9161 -6.008,-54.5538 -6.2719,-4.2608 -3.00425,-5.5369 1.24022,-8.5735 5.13925,-3.6768 4.48171,-17.4957 2.2063,-23.6851 -3.31947,-9.0293 -20.17112,-8.1319 -24.10697,2.0637 -4.36152,11.2982 6.42696,15.6953 0.74646,23.4303 -2.05326,1.678 -39.91808,27.5233 -40.8887,38.6107 -0.87211,9.962 27.1835,33.2155 40.02017,32.4571 -41.17353,-39.9891 -23.02023,-30.9633 -8.19156,-45.8459 l -6.10164,5.3602 c -0.12987,8.036 -0.31283,16.7835 -0.4843,25.538 2.11377,2.4935 13.31942,13.6469 14.83474,14.9612 -5.27127,0.3812 -11.70975,-3.1741 -15.02176,-5.1424 -0.27741,16.1973 -0.4369,33.1771 -0.0964,50.1328 -53.90423,-28.8583 -43.71098,-8.8205 -40.7266,13.8477 z"
       id="path3984"
       inkscape:connector-curvature="0"
       sodipodi:nodetypes="ccccsssscsccccccccc" />
    <path
       style="fill:#000000;fill-opacity:0.47058824;stroke:#000000;stroke-width:1px;stroke-linecap:butt;stroke-linejoin:miter;stroke-opacity:1"
       d="m 78.537012,2734.9231 c -25.65559,12.93 -57.67243,16.6087 -82.4258099,24.1289 -8.8230101,2.6939 -26.1244101,9.1344 -26.1244101,9.1344 15.67167,-0.3443 42.09898,-4.7591 61.50099,-6.685 24.4809,-2.4302 42.26026,-2.6732 63.18546,-5.5956 12.853708,-1.7952 26.023678,-6.3379 33.599688,-6.6057 -25.22719,-0.131 -41.258288,33.1536 -16.24452,43.2154 -2.56069,-15.9798 -9.02104,-22.1107 29.40961,-39.1517 l -8.38035,4.0159 c -1.80389,5.8063 0.39986,15.0626 13.84688,18.7794 -19.32838,-20.728 17.58068,-28.9033 16.78845,-32.2708 8.19482,-3.4947 15.79705,6.2235 29.85546,-1.2972 8.48264,-4.5378 8.60321,-17.2559 -2.03921,-19.7419 -11.79341,-2.7549 -21.30465,11.1259 -29.75176,6.5713 -15.90636,-12.884 -25.89372,-4.4751 -42.18187,-0.1909 -7.81093,2.0544 -26.315798,-1.7266 -41.038608,5.6935 z"
       id="path3835-0"
       inkscape:connector-curvature="0"
       sodipodi:nodetypes="sccssccccccsscss" />
    <path
       sodipodi:nodetypes="ccccsscccc"
       inkscape:connector-curvature="0"
       id="path4015"
       d="m 273.85104,2750.4226 c 60.88259,-24.3007 115.59659,-41.5486 174.61289,-61.6168 3.19947,40.1276 13.31311,75.9396 36.03206,77.3019 -24.21063,-25.1453 -17.39811,-80.5769 -21.93057,-102.1892 6.81281,-5.7406 15.1591,1.3265 26.4001,-9.9801 6.78267,-6.8222 1.6597,-21.0388 -9.24425,-20.3005 -12.08324,0.8182 -17.11444,13.3397 -26.5248,11.4573 -23.03562,-25.4384 -24.69398,-74.9486 -31.18088,-101.014 -2.05107,55.6427 0.98205,63.1745 8.72117,99.0374 -69.19336,29.5815 -115.70014,69.9911 -156.88572,107.304 z"
       style="fill:#000000;fill-opacity:0.47058824;stroke:#000000;stroke-width:1px;stroke-linecap:butt;stroke-linejoin:miter;stroke-opacity:1"
       inkscape:transform-center-x="-101.92557"
       inkscape:transform-center-y="-52.606071" />
    <path
       inkscape:transform-center-y="-69.595664"
       inkscape:transform-center-x="-115.83924"
       style="fill:#000000;fill-opacity:0.47058824;stroke:#000000;stroke-width:1px;stroke-linecap:butt;stroke-linejoin:miter;stroke-opacity:1"
       d="m 343.65923,2967.3192 c -8.28934,4.0484 -65.5086,37.4597 -65.5086,37.4597 63.66401,-15.624 120.24101,-25.1188 181.46988,-36.81 -2.39548,40.1836 5.86911,37.4092 21.39398,41.5514 -19.80531,-18.3857 -1.29581,-19.0305 -3.97787,-64.243 7.54298,-4.7405 14.82874,3.4157 27.52891,-6.2231 7.66311,-5.8158 3.6441,-16.9413 -6.34011,-21.3862 -13.24288,-5.8956 -19.04463,14.2082 -29.2858,9.8117 -3.40842,-4.7769 -11.22929,-13.8768 -17.7681,-15.5166 -31.82997,-7.9825 -90.02042,28.7278 -99.46226,45.0834 24.18197,-13.3934 49.71286,-18.371 83.47595,-30.7101 -33.00085,7.4175 -71.83481,31.5948 -91.52598,40.9828 z"
       id="path4028"
       inkscape:connector-curvature="0"
       sodipodi:nodetypes="cccccsscsccc" />
    <path
       sodipodi:nodetypes="sccsscssssscs"
       inkscape:connector-curvature="0"
       id="path3006"
       d="m 377.57942,3136.0731 c -12.07385,-6.8079 -22.24596,-26.8507 -24.8409,-38.1788 -12.23119,16.4496 -29.85349,24.8125 -44.78024,37.2187 0,0 35.3713,-50.9682 45.01796,-56.457 7.01881,-3.9935 15.45026,11.1746 27.63958,28.9701 5.05115,7.3743 15.57554,1.2622 28.32733,2.43 41.60777,-1.429 43.37402,21.3232 47.36637,12.3636 2.92286,-6.5594 6.18702,-10.8314 17.78169,-10.6466 10.01566,0.1596 14.5443,14.0463 1.60932,21.0443 -12.91274,6.986 -16.39274,-12.93 -24.63892,-0.3459 -1.04265,1.5911 -5.73662,4.3638 -10.79121,4.5907 -9.15794,0.4111 -27.31609,-2.0437 -34.10427,-2.606 -8.05502,-0.5899 -21.8844,5.396 -28.58671,1.6169 z"
       style="fill:#000000;fill-opacity:0.47058824;stroke:#000000;stroke-width:1px;stroke-linecap:butt;stroke-linejoin:miter;stroke-opacity:1" />
    <path
       style="fill:none;stroke:#000000;stroke-width:1px;stroke-linecap:butt;stroke-linejoin:miter;stroke-opacity:1"
       d="m 459.99367,3110.4117 -3.37133,-4.5178 c 7.19265,0.2614 2.51684,-9.2772 -1.48995,-2.9762 3.65821,-8.9983 -11.91745,-3.4204 -3.01778,1.6936 -6.56417,-1.351 -1.41133,7.2671 2.65096,2.7923 l 2.22534,5.1794"
       id="path3008"
       inkscape:connector-curvature="0"
       sodipodi:nodetypes="cccccc" />
  </g>
</svg>
