<?xml version="1.0" encoding="UTF-8" standalone="no"?>
<!-- Created with Inkscape (http://www.inkscape.org/) -->

<svg
   xmlns:dc="http://purl.org/dc/elements/1.1/"
   xmlns:cc="http://creativecommons.org/ns#"
   xmlns:rdf="http://www.w3.org/1999/02/22-rdf-syntax-ns#"
   xmlns:svg="http://www.w3.org/2000/svg"
   xmlns="http://www.w3.org/2000/svg"
   version="1.1"
   width="98.261703"
   height="217.52184"
   id="svg4453">
  <defs
     id="defs4455" />
  <metadata
     id="metadata4458">
    <rdf:RDF>
      <cc:Work
         rdf:about="">
        <dc:format>image/svg+xml</dc:format>
        <dc:type
           rdf:resource="http://purl.org/dc/dcmitype/StillImage" />
        <dc:title></dc:title>
      </cc:Work>
    </rdf:RDF>
  </metadata>
  <g
     transform="translate(-325.86915,-423.60126)"
     id="layer1">
    <path
       d="m 387.12317,598.4459 c 0.35676,-23.8172 25.70587,-54.8666 20.32452,-61.3794 -5.40824,-6.5453 -13.32032,-9.5184 -21.33032,-13.2535 1.76963,-12.3926 1.71511,-17.4884 1.52203,-28.0503 16.38568,32.7592 26.45831,-23.1865 25.97479,-24.8504 4.1e-4,0 -12.55155,23.1682 -15.9529,26.0419 -4.52648,-7.7979 -5.00782,-21.4685 -13.06966,-25.5063 -7.80539,-4.2948 8.35113,-14.783 2.84971,-29.7475 -3.31947,-9.0293 -15.89827,-10.9099 -19.83412,-0.7143 -4.36152,11.2983 6.28275,17.283 0.60225,25.018 -5.16861,7.0379 -9.47138,3.506 -15.18165,10.112 -6.7398,7.7971 -13.93459,19.9689 -15.36207,33.6026 -2.79829,26.7261 -0.19595,40.6459 -0.19595,40.6459 4.62071,-21.3435 3.17154,-46.8745 21.81852,-61.2255 -10.66684,21.7623 -5.04665,46.2204 8.36731,51.5041 1.7223,7.7881 3.1384,13.7891 6.82405,24.0784 -2.87968,19.3956 -6.88853,45.6103 -4.68437,65.9015 5.34953,-21.6309 15.18497,-47.5889 17.17563,-64.6658 1.56451,-13.4212 -1.84989,-20.5861 -2.74988,-21.913 l -16.7716,-3.3902 17.3753,3.4822 c 2.36305,0.4786 4.51799,1.1593 7.27019,0.8924 -7.13138,23.9884 -8.24436,41.2307 -4.97178,53.4172 z"
       id="path3961"
       style="fill:#000000;fill-opacity:0.47058824;stroke:#000000;stroke-width:1px;stroke-linecap:butt;stroke-linejoin:miter;stroke-opacity:1" />
  </g>
</svg>
