<?xml version="1.0" encoding="UTF-8" standalone="no"?>
<!-- Created with Inkscape (http://www.inkscape.org/) -->

<svg
   xmlns:dc="http://purl.org/dc/elements/1.1/"
   xmlns:cc="http://creativecommons.org/ns#"
   xmlns:rdf="http://www.w3.org/1999/02/22-rdf-syntax-ns#"
   xmlns:svg="http://www.w3.org/2000/svg"
   xmlns="http://www.w3.org/2000/svg"
   version="1.1"
   width="224.41797"
   height="293.72556"
   id="svg4042">
  <defs
     id="defs4044" />
  <metadata
     id="metadata4047">
    <rdf:RDF>
      <cc:Work
         rdf:about="">
        <dc:format>image/svg+xml</dc:format>
        <dc:type
           rdf:resource="http://purl.org/dc/dcmitype/StillImage" />
        <dc:title></dc:title>
      </cc:Work>
    </rdf:RDF>
  </metadata>
  <g
     transform="translate(-262.79102,-385.4994)"
     id="layer1">
    <path
       d="m 294.43487,667.20974 8.91062,-113.95395 14.57415,114.34391 c 0,0 7.23931,-79.25781 5.76504,-115.18074 -4.9895,-22.97332 -4.96144,-35.85466 -2.61203,-59.45903 0.10185,12.85911 0.81941,23.31802 1.97761,32.40885 2.34517,18.40748 6.49697,31.20584 11.00208,46.96352 -0.37416,-11.72461 -0.0911,-35.00288 -3.41955,-57.59598 -2.03324,-13.80124 2.30322,-21.10153 -0.38955,-26.38643 -6.70487,-13.15918 -11.19566,-4.22733 -18.65808,-13.5863 -5.5541,-6.96566 8.35113,-14.78302 2.84971,-29.74746 -3.31947,-9.0293 -15.89827,-10.90991 -19.83412,-0.71429 -4.36152,11.29827 8.06846,22.6401 2.38796,30.37509 -5.16861,7.03795 -9.64995,2.43456 -15.36022,9.04061 -6.7398,7.79709 -5.75602,21.68316 -7.1835,35.31687 -2.79829,26.72611 0.3724,54.84901 0.3724,54.84901 l 6.47428,-43.77122 5.49526,-37.15227 c 2.7245,21.76226 -2.84304,41.35862 -4.28571,61.42857 -1.95673,36.57491 11.93365,112.82124 11.93365,112.82124 z"
       id="path2998"
       style="fill:#000000;fill-opacity:0.47087378;stroke:#000000;stroke-width:1px;stroke-linecap:butt;stroke-linejoin:miter;stroke-opacity:1" />
    <path
       d="m 396.1506,668.72497 37.19489,-115.46918 43.3635,113.83883 c 0,0 -12.45867,-78.75273 -23.02431,-114.67566 -6.53832,-21.63183 -4.82801,-37.1953 -2.61203,-59.45903 5.17881,-10.21797 11.12555,-38.59037 10.85452,-49.43889 -0.45358,-18.15521 -4.11758,-35.69236 -24.9091,-47.52164 12.42736,10.24258 16.03327,33.02648 16.54365,44.99578 0.37551,8.8063 -2.06576,18.30117 -5.79745,27.09038 -2.20284,5.18832 -4.07383,9.07271 -6.17911,6.67803 -5.88225,-6.69086 8.35113,-14.78302 2.84971,-29.74746 -3.31947,-9.0293 -15.89827,-10.90991 -19.83412,-0.71429 -4.36152,11.29827 7.88033,22.5054 2.38796,30.37509 -4.05666,5.81255 -6.17472,-1.02223 -9.04677,-7.50064 -4.17697,-9.42191 -4.5296,-15.17079 -5.66827,-31.72149 -1.67048,-24.28062 12.77792,-39.31028 12.83868,-39.0571 -8.6467,3.15377 -21.34546,25.69031 -20.89175,42.80077 0.72179,27.22073 5.63947,39.61029 10.79856,56.28684 0.0241,20.39307 1.21368,36.32548 -3.65436,57.51423 -9.0278,38.59522 -15.2142,115.72543 -15.2142,115.72543 z"
       id="path3788"
       style="fill:#000000;fill-opacity:0.47087378;stroke:#000000;stroke-width:1px;stroke-linecap:butt;stroke-linejoin:miter;stroke-opacity:1" />
  </g>
</svg>
