<?xml version="1.0" encoding="UTF-8" standalone="no"?>
<!-- Created with Inkscape (http://www.inkscape.org/) -->

<svg
   xmlns:dc="http://purl.org/dc/elements/1.1/"
   xmlns:cc="http://creativecommons.org/ns#"
   xmlns:rdf="http://www.w3.org/1999/02/22-rdf-syntax-ns#"
   xmlns:svg="http://www.w3.org/2000/svg"
   xmlns="http://www.w3.org/2000/svg"
   version="1.1"
   width="299.96899"
   height="239.5809"
   id="svg4499">
  <defs
     id="defs4501" />
  <metadata
     id="metadata4504">
    <rdf:RDF>
      <cc:Work
         rdf:about="">
        <dc:format>image/svg+xml</dc:format>
        <dc:type
           rdf:resource="http://purl.org/dc/dcmitype/StillImage" />
        <dc:title></dc:title>
      </cc:Work>
    </rdf:RDF>
  </metadata>
  <g
     transform="translate(-225.0155,-412.57173)"
     id="layer1">
    <path
       d="m 266.23508,641.65264 c 5.4435,-29.2 12.19409,-75.0323 16.24247,-98.8611 4.14031,30.9333 -0.65712,57.4372 5.89048,84.3495 9.4751,-42.094 13.14763,-73.1897 9.93742,-120.7594 -1.05561,-15.6424 10.87358,-33.668 -1.84112,-42.3057 -6.2719,-4.2608 -3.13052,-8.0623 1.11395,-11.0989 5.13925,-3.6768 4.48171,-17.4957 2.2063,-23.6851 -3.31947,-9.0293 -20.17112,-8.1319 -24.10697,2.0637 -4.36152,11.2982 6.42696,15.6953 0.74646,23.4303 -2.05326,1.678 -39.91808,27.5233 -40.8887,38.6107 -0.87211,9.962 27.1835,33.2155 40.02017,32.4571 -41.17354,-39.9891 -23.02023,-30.9633 -8.19156,-45.8459 l -6.10164,5.3602 c -0.12987,8.036 -0.31283,16.7835 -0.4843,25.538 2.11377,2.4935 13.31942,13.6469 14.83474,14.9612 -5.27127,0.3812 -11.70975,-3.1741 -15.02176,-5.1424 -0.67752,39.5589 -0.65165,83.7853 5.64406,120.9278 z"
       id="path3982"
       style="fill:#000000;fill-opacity:0.47087378;stroke:#000000;stroke-width:1px;stroke-linecap:butt;stroke-linejoin:miter;stroke-opacity:1" />
    <path
       d="m 391.76806,622.70534 c 6.63767,-58.0944 57.73155,67.832 62.70949,-41.9138 79.94343,-17.4914 18.39468,30.6448 43.64493,59.727 3.64424,-50.9726 46.74889,-71.6208 -23.77642,-86.4142 -1.05561,-15.6424 6.7067,-45.9161 -6.008,-54.5538 -6.2719,-4.2608 -3.00425,-5.5369 1.24022,-8.5735 5.13925,-3.6768 4.48171,-17.4957 2.2063,-23.6851 -3.31947,-9.0293 -20.17112,-8.1319 -24.10697,2.0637 -4.36152,11.2982 6.42696,15.6953 0.74646,23.4303 -2.05326,1.678 -39.91808,27.5233 -40.8887,38.6107 -0.87211,9.962 27.1835,33.2155 40.02017,32.4571 -41.17353,-39.9891 -23.02023,-30.9633 -8.19156,-45.8459 l -6.10164,5.3602 c -0.12987,8.036 -0.31283,16.7835 -0.4843,25.538 2.11377,2.4935 13.31942,13.6469 14.83474,14.9612 -5.27127,0.3812 -11.70975,-3.1741 -15.02176,-5.1424 -0.27741,16.1973 -0.4369,33.1771 -0.0964,50.1328 -53.90423,-28.8583 -43.71098,-8.8205 -40.7266,13.8477 z"
       id="path3984"
       style="fill:#000000;fill-opacity:0.47087378;stroke:#000000;stroke-width:1px;stroke-linecap:butt;stroke-linejoin:miter;stroke-opacity:1" />
  </g>
</svg>
