<?xml version="1.0" encoding="UTF-8" standalone="no"?>
<!-- Created with Inkscape (http://www.inkscape.org/) -->

<svg
   xmlns:dc="http://purl.org/dc/elements/1.1/"
   xmlns:cc="http://creativecommons.org/ns#"
   xmlns:rdf="http://www.w3.org/1999/02/22-rdf-syntax-ns#"
   xmlns:svg="http://www.w3.org/2000/svg"
   xmlns="http://www.w3.org/2000/svg"
   version="1.1"
   width="526.56915"
   height="131.84291"
   id="svg4135">
  <defs
     id="defs4137" />
  <metadata
     id="metadata4140">
    <rdf:RDF>
      <cc:Work
         rdf:about="">
        <dc:format>image/svg+xml</dc:format>
        <dc:type
           rdf:resource="http://purl.org/dc/dcmitype/StillImage" />
        <dc:title></dc:title>
      </cc:Work>
    </rdf:RDF>
  </metadata>
  <g
     transform="translate(-111.71542,-466.44073)"
     id="layer1">
    <path
       d="m 224.95989,504.94732 c -23.56554,16.43351 -54.73855,24.60993 -78.17722,35.56042 -8.35251,3.91637 -24.56725,12.7425 -24.56725,12.7425 15.46491,-2.56052 41.00049,-10.67392 59.9341,-15.32857 23.88989,-5.87311 41.45557,-8.63195 61.75589,-14.48873 12.46986,-3.59764 24.86363,-9.95994 32.32534,-11.29807 -4.76907,10.97086 -9.80251,45.60115 4.61838,75.64877 -0.28233,-31.60607 -5.3727,-63.50534 14.73937,-74.31345 6.41832,-3.44916 9.29249,36.24731 19.18225,50.89607 -3.21005,-32.60531 -5.72919,-61.79644 -4.24356,-62.6055 7.61721,-4.62023 16.51929,3.92329 29.37075,-5.51281 7.75438,-5.69358 6.07236,-18.30048 -4.81489,-19.25407 -12.06471,-1.05673 -19.514,14.03134 -28.52105,10.71906 -17.57088,-10.50117 -26.26652,-0.76239 -41.78366,5.78559 -7.44119,3.14006 -26.29504,2.01819 -39.81845,11.44879 z"
       id="path3833"
       style="fill:#000000;fill-opacity:0.47058824;stroke:#000000;stroke-width:1px;stroke-linecap:butt;stroke-linejoin:miter;stroke-opacity:1" />
    <path
       d="m 506.60277,526.07928 c -25.65559,12.93003 -57.67243,16.60869 -82.42581,24.12895 -8.82301,2.69385 -26.12441,9.13435 -26.12441,9.13435 15.67167,-0.34426 42.09897,-4.75903 61.50099,-6.68502 24.4809,-2.43015 42.26026,-2.67319 63.18545,-5.5956 12.85371,-1.79516 26.02368,-6.33787 33.59969,-6.60564 -25.22719,-0.13097 -41.25828,33.15359 -16.24452,43.21537 -2.56069,-15.97975 -9.02104,-22.11073 29.40961,-39.15169 l -8.38035,4.01592 c -1.80389,5.80627 0.39986,15.06262 13.84688,18.77941 -19.32838,-20.728 17.58068,-28.90328 16.78845,-32.27081 8.19482,-3.49475 15.79705,6.22352 29.85546,-1.29719 8.48264,-4.53785 8.60321,-17.25589 -2.03921,-19.74193 -11.79341,-2.75491 -21.30465,11.12594 -29.75176,6.5713 -15.90636,-12.88403 -25.89372,-4.47507 -42.18187,-0.19094 -7.81093,2.05444 -26.3158,-1.72656 -41.03861,5.69352 z"
       id="path3835"
       style="fill:#000000;fill-opacity:0.47058824;stroke:#000000;stroke-width:1px;stroke-linecap:butt;stroke-linejoin:miter;stroke-opacity:1" />
  </g>
</svg>
