<?xml version="1.0" encoding="UTF-8" standalone="no"?>
<!-- Created with Inkscape (http://www.inkscape.org/) -->

<svg
   xmlns:dc="http://purl.org/dc/elements/1.1/"
   xmlns:cc="http://creativecommons.org/ns#"
   xmlns:rdf="http://www.w3.org/1999/02/22-rdf-syntax-ns#"
   xmlns:svg="http://www.w3.org/2000/svg"
   xmlns="http://www.w3.org/2000/svg"
   version="1.1"
   width="543.03668"
   height="243.4343"
   id="svg4559">
  <defs
     id="defs4561" />
  <metadata
     id="metadata4564">
    <rdf:RDF>
      <cc:Work
         rdf:about="">
        <dc:format>image/svg+xml</dc:format>
        <dc:type
           rdf:resource="http://purl.org/dc/dcmitype/StillImage" />
        <dc:title></dc:title>
      </cc:Work>
    </rdf:RDF>
  </metadata>
  <g
     transform="translate(-103.48166,-423.64503)"
     id="layer1">
    <path
       d="m 222.53188,598.98693 c -25.65559,12.93 -57.67243,16.6087 -82.42581,24.1289 -8.82301,2.6939 -26.12441,9.1344 -26.12441,9.1344 15.67167,-0.3443 42.09898,-4.7591 61.50099,-6.685 24.4809,-2.4302 42.26026,-2.6732 63.18546,-5.5956 12.85371,-1.7952 26.02368,-6.3379 33.59969,-6.6057 -25.22719,-0.131 -41.25829,33.1536 -16.24452,43.2154 -2.56069,-15.9798 -9.02104,-22.1107 29.40961,-39.1517 l -8.38035,4.0159 c -1.80389,5.8063 0.39986,15.0626 13.84688,18.7794 -19.32838,-20.728 17.58068,-28.9033 16.78845,-32.2708 8.19482,-3.4947 15.79705,6.2235 29.85546,-1.2972 8.48264,-4.5378 8.60321,-17.2559 -2.03921,-19.7419 -11.79341,-2.7549 -21.30465,11.1259 -29.75176,6.5713 -15.90636,-12.884 -25.89372,-4.4751 -42.18187,-0.1909 -7.81093,2.0544 -26.3158,-1.7266 -41.03861,5.6935 z"
       id="path3835-0"
       style="fill:#000000;fill-opacity:0.47058824;stroke:#000000;stroke-width:1px;stroke-linecap:butt;stroke-linejoin:miter;stroke-opacity:1" />
    <path
       d="m 417.84591,640.48643 c 60.88259,-24.3007 115.59659,-41.5486 174.61289,-61.6168 3.19947,40.1276 13.31311,75.9396 36.03206,77.3019 -24.21063,-25.1453 -17.39811,-80.5769 -21.93057,-102.1892 6.81281,-5.7406 15.1591,1.3265 26.4001,-9.9801 6.78267,-6.8222 1.6597,-21.0388 -9.24425,-20.3005 -12.08324,0.8182 -17.11444,13.3397 -26.5248,11.4573 -23.03562,-25.4384 -24.69398,-74.9486 -31.18088,-101.014 -2.05107,55.6427 0.98205,63.1745 8.72117,99.0374 -69.19336,29.5815 -115.70014,69.9911 -156.88572,107.304 z"
       id="path4015"
       style="fill:#000000;fill-opacity:0.47058824;stroke:#000000;stroke-width:1px;stroke-linecap:butt;stroke-linejoin:miter;stroke-opacity:1" />
  </g>
</svg>
