<?xml version="1.0" encoding="UTF-8" standalone="no"?>
<!-- Created with Inkscape (http://www.inkscape.org/) -->

<svg
   xmlns:dc="http://purl.org/dc/elements/1.1/"
   xmlns:cc="http://creativecommons.org/ns#"
   xmlns:rdf="http://www.w3.org/1999/02/22-rdf-syntax-ns#"
   xmlns:svg="http://www.w3.org/2000/svg"
   xmlns="http://www.w3.org/2000/svg"
   version="1.1"
   width="251.41579"
   height="119.67804"
   id="svg4621">
  <defs
     id="defs4623" />
  <metadata
     id="metadata4626">
    <rdf:RDF>
      <cc:Work
         rdf:about="">
        <dc:format>image/svg+xml</dc:format>
        <dc:type
           rdf:resource="http://purl.org/dc/dcmitype/StillImage" />
        <dc:title></dc:title>
      </cc:Work>
    </rdf:RDF>
  </metadata>
  <g
     transform="translate(-249.29211,-472.52316)"
     id="layer1">
    <path
       d="m 325.30071,539.5001 c -8.28934,4.0484 -65.5086,37.4597 -65.5086,37.4597 63.66401,-15.624 120.24101,-25.1188 181.46988,-36.81 -2.39548,40.1836 5.86911,37.4092 21.39398,41.5514 -19.80531,-18.3857 -1.29581,-19.0305 -3.97787,-64.243 7.54298,-4.7405 14.82874,3.4157 27.52891,-6.2231 7.66311,-5.8158 3.6441,-16.9413 -6.34011,-21.3862 -13.24288,-5.8956 -19.04463,14.2082 -29.2858,9.8117 -3.40842,-4.7769 -11.22929,-13.8768 -17.7681,-15.5166 -31.82997,-7.9825 -90.02042,28.7278 -99.46226,45.0834 24.18197,-13.3934 49.71286,-18.371 83.47595,-30.7101 -33.00085,7.4175 -71.83481,31.5948 -91.52598,40.9828 z"
       id="path4028"
       style="fill:#000000;fill-opacity:0.47058824;stroke:#000000;stroke-width:1px;stroke-linecap:butt;stroke-linejoin:miter;stroke-opacity:1" />
  </g>
</svg>
