<?xml version="1.0" encoding="UTF-8" standalone="no"?>
<!-- Created with Inkscape (http://www.inkscape.org/) -->

<svg
   xmlns:dc="http://purl.org/dc/elements/1.1/"
   xmlns:cc="http://creativecommons.org/ns#"
   xmlns:rdf="http://www.w3.org/1999/02/22-rdf-syntax-ns#"
   xmlns:svg="http://www.w3.org/2000/svg"
   xmlns="http://www.w3.org/2000/svg"
   version="1.1"
   width="297.64828"
   height="239.5809"
   id="svg4299">
  <defs
     id="defs4301" />
  <metadata
     id="metadata4304">
    <rdf:RDF>
      <cc:Work
         rdf:about="">
        <dc:format>image/svg+xml</dc:format>
        <dc:type
           rdf:resource="http://purl.org/dc/dcmitype/StillImage" />
        <dc:title></dc:title>
      </cc:Work>
    </rdf:RDF>
  </metadata>
  <g
     transform="translate(-205.46157,-461.14316)"
     id="layer1">
    <path
       d="m 227.95424,690.22407 c 5.4435,-29.2 12.19409,-75.0323 16.24247,-98.8611 4.14031,30.9333 -0.65712,57.4372 5.89048,84.3495 9.4751,-42.094 13.14763,-73.1897 9.93742,-120.7594 -1.05561,-15.6424 10.87358,-33.668 -1.84112,-42.3057 -6.2719,-4.2608 -3.13052,-8.0623 1.11395,-11.0989 5.13925,-3.6768 4.48171,-17.4957 2.2063,-23.6851 -3.31947,-9.0293 -20.17112,-8.1319 -24.10697,2.0637 -4.36152,11.2982 6.42696,17.7156 0.74646,25.4506 -4.32248,6.7837 -15.96254,9.3635 -19.42296,29.5193 -1.83995,10.7171 -4.95748,15.3129 -0.38593,68.8226 3.50562,-32.388 14.53709,-69.5991 14.53687,-69.5845 0,0 -5.69738,21.8695 -9.42313,40.6327 -0.2489,40.0792 -0.6111,87.0494 4.50616,115.4563 z"
       id="path3892"
       style="fill:#000000;fill-opacity:0.47087378;stroke:#000000;stroke-width:1px;stroke-linecap:butt;stroke-linejoin:miter;stroke-opacity:1" />
    <path
       d="m 373.66853,688.43837 c 5.37856,-28.8517 29.23106,-36.2407 25.19973,-59.4438 -0.7114,-4.0946 -20.16627,-5.4722 -20.11798,-5.7565 l 11.07729,1.5011 c 4.36532,0.5916 8.79912,3.1357 9.22607,4.3652 0.67243,1.9363 4.88673,0.4701 6.10341,0.2029 -6.46549,14.0703 -10.6199,26.0913 -4.65887,46.0697 11.78892,-43.3193 22.03703,-33.498 21.80671,-52.8267 -0.0862,-7.2325 -19.86847,-9.4445 -24.66014,-9.4132 2.05631,-3.8314 4.89198,-6.1282 7.53,-10.3071 -12.55821,-1.1276 -18.22994,-4.5033 -17.81415,-4.3352 8.31287,3.361 10.82559,3.3981 17.95115,4.2918 20.19412,2.5327 52.10573,6.696 67.63262,5.5482 -40.45116,-8.2212 -25.37667,-4.7259 -76.39722,-18.3519 6.49883,1.6217 15.05206,4.0499 14.37374,3.7777 l 2.33656,-3.2716 c 0,0 24.41235,5.2463 79.35241,6.9599 -34.10065,-8.8804 -61.39698,-12.4376 -75.17655,-17.7096 -7.46062,-2.8544 -6.66663,-3.0101 -2.42158,-6.0481 5.13871,-3.6776 4.48171,-17.4957 2.2063,-23.6851 -3.31947,-9.0293 -20.17113,-8.132 -24.10697,2.0636 -2.71674,7.0376 0.44456,11.35 1.84242,15.471 1.92112,6.4941 -7.92945,5.0486 -12.66178,10.3919 -3.62009,4.0874 -42.872,39.4073 -20.74307,59.3583 3.54282,3.1941 12.14823,5.5516 17.39401,5.7726 -1.89339,6.4817 -10.80962,12.6216 -5.27411,45.3747 z"
       id="path3896"
       style="fill:#000000;fill-opacity:0.47087378;stroke:#000000;stroke-width:1px;stroke-linecap:butt;stroke-linejoin:miter;stroke-opacity:1" />
  </g>
</svg>
