<?xml version="1.0" encoding="UTF-8" standalone="no"?>
<!-- Created with Inkscape (http://www.inkscape.org/) -->

<svg
   xmlns:dc="http://purl.org/dc/elements/1.1/"
   xmlns:cc="http://creativecommons.org/ns#"
   xmlns:rdf="http://www.w3.org/1999/02/22-rdf-syntax-ns#"
   xmlns:svg="http://www.w3.org/2000/svg"
   xmlns="http://www.w3.org/2000/svg"
   version="1.1"
   width="265.03989"
   height="285.58112"
   id="svg4247">
  <defs
     id="defs4249" />
  <metadata
     id="metadata4252">
    <rdf:RDF>
      <cc:Work
         rdf:about="">
        <dc:format>image/svg+xml</dc:format>
        <dc:type
           rdf:resource="http://purl.org/dc/dcmitype/StillImage" />
        <dc:title></dc:title>
      </cc:Work>
    </rdf:RDF>
  </metadata>
  <g
     transform="translate(-441.76577,-503.85734)"
     id="layer1">
    <path
       d="m 626.30566,739.40618 24.10714,-11.7857 45.89286,3.0357 -27.67857,14.1071 z"
       id="path3871"
       style="fill:#000000;fill-opacity:0.47058824;stroke:#000000;stroke-width:1px;stroke-linecap:butt;stroke-linejoin:miter;stroke-opacity:1" />
    <path
       d="m 660.00745,735.36688 c -0.23032,0.1919 12.41493,-68.2169 12.52819,-107.8968 0.0611,-21.3939 17.71106,-51.2082 3.98678,-68.1799 -4.76766,-5.8958 -5.20195,-11.9909 -0.95748,-15.0275 5.13925,-3.6768 4.48171,-17.4957 2.2063,-23.6851 -3.31947,-9.0293 -20.17112,-8.132 -24.10697,2.0637 -4.36152,11.2982 6.42696,17.7156 0.74646,25.4506 -4.81007,7.549 -17.20722,16.6582 -12.48631,39.8288 7.01419,57.2662 5.41291,105.6209 18.08303,147.4462 z"
       id="path3867"
       style="fill:#000000;fill-opacity:0.47087378;stroke:#000000;stroke-width:1px;stroke-linecap:butt;stroke-linejoin:miter;stroke-opacity:1" />
    <path
       d="m 492.30567,739.40618 24.10714,-11.7857 45.89285,3.0357 -27.67856,14.1071 z"
       id="path3873"
       style="fill:#000000;fill-opacity:0.47058824;stroke:#000000;stroke-width:1px;stroke-linecap:butt;stroke-linejoin:miter;stroke-opacity:1" />
    <path
       d="m 454.22175,778.93828 c -0.0866,0.072 5.43009,-22.2374 13.24654,-33.4961 12.96078,-18.6685 15.38879,-15.6692 29.63879,-57.4364 0,0 17.50044,0.8353 29.82856,-8.8959 -5.24472,10.7226 -4.69657,48.7581 -0.36665,56.8168 -0.74087,-12.7345 17.0599,-55.6334 16.26556,-65.1673 -1.08828,-13.0619 -35.45652,-2.7494 -39.18529,-10.5921 -6.73191,-14.1591 7.30215,-30.4536 -1.12683,-40.8771 -4.76766,-5.8958 0.79805,-11.9909 5.04252,-15.0275 5.13925,-3.6768 4.48171,-17.4957 2.2063,-23.6851 -3.31947,-9.0293 -20.17112,-8.132 -24.10697,2.0637 -4.36152,11.2982 6.42696,17.7156 0.74646,25.4506 -4.32248,6.7837 -15.96254,9.3635 -19.42296,29.5193 -1.83995,10.7171 -4.95748,15.3129 -0.38593,68.8226 3.50562,-32.388 14.53709,-69.5991 14.53687,-69.5845 0,0 -5.69738,21.8695 -9.42313,40.6327 -1.97999,15.8636 -0.42294,32.2931 -2.146,39.308 -6.94706,28.2825 -22.82383,22.9686 -15.34784,62.1483 z"
       id="path3875"
       style="fill:#000000;fill-opacity:0.47087378;stroke:#000000;stroke-width:1px;stroke-linecap:butt;stroke-linejoin:miter;stroke-opacity:1" />
  </g>
</svg>
