<?xml version="1.0" encoding="UTF-8" standalone="no"?>
<!-- Created with Inkscape (http://www.inkscape.org/) -->

<svg
   xmlns:dc="http://purl.org/dc/elements/1.1/"
   xmlns:cc="http://creativecommons.org/ns#"
   xmlns:rdf="http://www.w3.org/1999/02/22-rdf-syntax-ns#"
   xmlns:svg="http://www.w3.org/2000/svg"
   xmlns="http://www.w3.org/2000/svg"
   version="1.1"
   width="494.94626"
   height="199.85138"
   id="svg4349">
  <defs
     id="defs4351" />
  <metadata
     id="metadata4354">
    <rdf:RDF>
      <cc:Work
         rdf:about="">
        <dc:format>image/svg+xml</dc:format>
        <dc:type
           rdf:resource="http://purl.org/dc/dcmitype/StillImage" />
        <dc:title></dc:title>
      </cc:Work>
    </rdf:RDF>
  </metadata>
  <g
     transform="translate(-127.52687,-432.4365)"
     id="layer1">
    <path
       d="m 230.66767,564.71577 c 62.73702,5.0615 74.4397,41.2433 115.30545,57.0721 -9.15666,-12.723 -27.75819,-32.0071 -40.33073,-46.9095 -15.86362,-18.8033 -42.55872,-23.6781 -56.81497,-39.2718 -8.75722,-9.5787 -16.3868,-32.5054 -20.89684,-38.5986 -9.93655,-11.3525 -7.02295,-5.9649 -7.37197,-18.6322 4.37268,-7.9427 5.64747,-15.3951 3.74162,-22.5179 -4.25395,-15.8983 -28.49135,-19.386 -26.90417,2.5012 0.86102,11.8734 8.14538,14.3345 3.40423,24.8034 -3.41505,7.5407 -4.8327,12.7345 -5.38135,16.9735 -0.66312,5.1234 -14.29653,43.7845 -7.53158,73.3 2.82269,-17.3504 15.39484,-58.9789 19.4603,-66.1593 -3.48794,7.3662 -4.96047,11.9176 -6.84028,17.5495 1.89167,7.1722 15.70833,31.9549 30.16029,39.8896 z"
       id="path3914"
       style="fill:#000000;fill-opacity:0.47058824;stroke:#000000;stroke-width:1px;stroke-linecap:butt;stroke-linejoin:miter;stroke-opacity:1" />
    <path
       d="m 146.95545,567.90167 -8.92858,15.3571 59.28572,-5 2.5,-16.0714 z"
       id="path3918"
       style="fill:#000000;fill-opacity:0.47058824;stroke:#000000;stroke-width:1px;stroke-linecap:butt;stroke-linejoin:miter;stroke-opacity:1" />
    <path
       d="m 506.77481,595.46577 c 65.02174,-16.1286 29.49568,-22.5006 105.19831,26.3221 -9.15666,-12.723 -27.75819,-32.0071 -40.33073,-46.9095 -15.86362,-18.8033 -50.55872,2.3219 -64.81497,-13.2718 -8.75722,-9.5787 -16.3868,-32.5054 -20.89684,-38.5986 2.56345,-8.1382 2.69133,-7.822 6.62804,-12.6322 7.94411,-2.2284 9.64747,-15.3951 7.7416,-22.5179 -4.25394,-15.8983 -28.49133,-19.386 -26.90415,2.5012 0.86101,11.8734 2.07231,14.7724 -6.31007,21.9463 -4.50441,3.8549 -22.80078,6.0747 -27.88135,20.5449 -7.89511,22.4863 4.92062,31.5401 14.68272,40.5857 -4.89917,-19.9411 -13.26788,-34.0598 18.67458,-38.9807 -5.6308,1.3841 -7.37118,1.3461 -12.82243,3.4066 1.29043,23.2554 32.24889,58.6157 47.0353,57.6039 z"
       id="path3922"
       style="fill:#000000;fill-opacity:0.47058824;stroke:#000000;stroke-width:1px;stroke-linecap:butt;stroke-linejoin:miter;stroke-opacity:1" />
    <path
       d="m 412.95544,567.90167 -8.92856,15.3571 59.28571,-5 2.5,-16.0714 z"
       id="path3924"
       style="fill:#000000;fill-opacity:0.47058824;stroke:#000000;stroke-width:1px;stroke-linecap:butt;stroke-linejoin:miter;stroke-opacity:1" />
  </g>
</svg>
