<?xml version="1.0" encoding="UTF-8" standalone="no"?>
<!-- Created with Inkscape (http://www.inkscape.org/) -->

<svg
   xmlns:dc="http://purl.org/dc/elements/1.1/"
   xmlns:cc="http://creativecommons.org/ns#"
   xmlns:rdf="http://www.w3.org/1999/02/22-rdf-syntax-ns#"
   xmlns:svg="http://www.w3.org/2000/svg"
   xmlns="http://www.w3.org/2000/svg"
   version="1.1"
   width="110.74886"
   height="201.50703"
   id="svg4089">
  <defs
     id="defs4091" />
  <metadata
     id="metadata4094">
    <rdf:RDF>
      <cc:Work
         rdf:about="">
        <dc:format>image/svg+xml</dc:format>
        <dc:type
           rdf:resource="http://purl.org/dc/dcmitype/StillImage" />
        <dc:title></dc:title>
      </cc:Work>
    </rdf:RDF>
  </metadata>
  <g
     transform="translate(-478.91128,-297.32295)"
     id="layer1">
    <path
       d="m 545.61454,488.32999 c 2.85116,-23.46084 13.21174,-69.44976 7.57134,-74.13252 -6.53267,-5.42353 -15.71943,-7.8138 -23.72943,-11.54895 0.11265,-0.0125 13.63207,4.77944 23.40307,10.6273 2.66549,1.59527 2.05119,6.81646 2.48701,10.84056 2.71999,1.33088 9.21877,0.66141 9.21877,0.66141 0,0 -1.2814,20.2131 8.87048,49.4757 1.19897,-14.39833 8.46333,-53.56503 4.60632,-60.33742 -5.27875,-9.26875 -26.36474,-12.59632 -35.72765,-15.24326 -6.97541,-1.97197 -3.04545,-17.51834 -3.63356,-32.09263 0.10185,12.85911 1.62298,16.26444 2.78118,25.35527 0.26605,2.08822 0.55419,3.96062 0.86258,5.6623 l 9.00965,2.0264 c -0.46187,-6.39869 -1.19001,-13.55413 -2.37898,-21.62473 -2.03322,-13.80124 -1.7751,-17.60519 -4.05027,-23.08285 -3.5002,-8.42703 -10.29354,-3.17519 -15.71165,-9.74701 -5.6672,-6.87396 8.35113,-14.78303 2.84971,-29.74747 -3.31947,-9.0293 -15.89827,-10.90991 -19.83412,-0.71429 -4.36152,11.29827 6.28275,17.28296 0.60225,25.01795 -5.16861,7.03795 -9.47138,3.50599 -15.18165,10.11204 -6.7398,7.79709 -5.93459,25.96887 -7.36207,39.60258 -2.79829,26.72611 2.15811,54.84901 2.15811,54.84901 l 6.47428,-43.77122 5.49526,-37.15227 c 2.7245,21.76226 -6.04222,51.14287 7.35715,56.42857 7.35785,2.90248 3.18571,2.63601 23.17663,7.28967 1.27619,26.57534 10.72377,61.18971 10.68559,61.24586 z"
       id="path3820"
       style="fill:#000000;fill-opacity:0.47058824;stroke:#000000;stroke-width:1px;stroke-linecap:butt;stroke-linejoin:miter;stroke-opacity:1" />
  </g>
</svg>
